<svg width="200" height="150" viewBox="0 0 200 150" fill="none" xmlns="http://www.w3.org/2000/svg">
  <rect width="200" height="150" rx="12" fill="url(#gradient3)"/>
  <defs>
    <linearGradient id="gradient3" x1="0%" y1="0%" x2="100%" y2="100%">
      <stop offset="0%" style="stop-color:#f59e0b;stop-opacity:0.1"/>
      <stop offset="100%" style="stop-color:#d97706;stop-opacity:0.2"/>
    </linearGradient>
  </defs>
  
  <!-- People Icons -->
  <g transform="translate(40, 40)">
    <!-- Person 1 -->
    <circle cx="15" cy="15" r="8" fill="#f59e0b" opacity="0.8"/>
    <rect x="7" y="25" width="16" height="20" rx="8" fill="#f59e0b" opacity="0.6"/>
  </g>
  
  <g transform="translate(100, 50)">
    <!-- Person 2 -->
    <circle cx="15" cy="15" r="8" fill="#f59e0b" opacity="0.7"/>
    <rect x="7" y="25" width="16" height="20" rx="8" fill="#f59e0b" opacity="0.5"/>
  </g>
  
  <g transform="translate(140, 40)">
    <!-- Person 3 -->
    <circle cx="15" cy="15" r="8" fill="#f59e0b" opacity="0.6"/>
    <rect x="7" y="25" width="16" height="20" rx="8" fill="#f59e0b" opacity="0.4"/>
  </g>
  
  <!-- Speech Bubbles -->
  <g transform="translate(20, 20)">
    <ellipse cx="20" cy="15" rx="15" ry="10" fill="white" opacity="0.9"/>
    <path d="M15 22 L12 28 L20 25 Z" fill="white" opacity="0.9"/>
    <circle cx="15" cy="15" r="2" fill="#f59e0b" opacity="0.6"/>
    <circle cx="20" cy="15" r="2" fill="#f59e0b" opacity="0.6"/>
    <circle cx="25" cy="15" r="2" fill="#f59e0b" opacity="0.6"/>
  </g>
  
  <g transform="translate(130, 25)">
    <ellipse cx="20" cy="15" rx="15" ry="10" fill="white" opacity="0.8"/>
    <path d="M25 22 L28 28 L20 25 Z" fill="white" opacity="0.8"/>
    <rect x="12" y="12" width="16" height="2" rx="1" fill="#f59e0b" opacity="0.5"/>
    <rect x="12" y="16" width="12" height="2" rx="1" fill="#f59e0b" opacity="0.5"/>
  </g>
  
  <!-- Connection Lines -->
  <g opacity="0.3" stroke="#f59e0b" stroke-width="2" fill="none" stroke-dasharray="3,3">
    <path d="M70 60 Q85 50 100 65"/>
    <path d="M130 65 Q145 55 155 60"/>
  </g>
  
  <!-- Stars for feedback -->
  <g transform="translate(60, 100)" opacity="0.4" fill="#f59e0b">
    <polygon points="5,0 6,3 10,3 7,5 8,9 5,7 2,9 3,5 0,3 4,3"/>
    <polygon points="20,0 21,3 25,3 22,5 23,9 20,7 17,9 18,5 15,3 19,3"/>
    <polygon points="35,0 36,3 40,3 37,5 38,9 35,7 32,9 33,5 30,3 34,3"/>
  </g>
</svg>